<svg width="107" height="107" viewBox="0 0 107 107" fill="none" xmlns="http://www.w3.org/2000/svg">
<path d="M49.0957 8.91675C52.3633 8.91675 53.9995 8.91648 55.542 9.28198C56.9066 9.61087 58.211 10.1531 59.4072 10.8875C60.7581 11.7167 61.9137 12.871 64.2275 15.1804L78.4404 29.4031C80.754 31.7122 81.9086 32.8668 82.7334 34.2175C83.4679 35.4137 84.01 36.7182 84.3389 38.0828C84.7089 39.6253 84.709 41.2576 84.709 44.53V80.2498C84.709 86.4914 84.7083 89.6126 83.4912 91.9978C82.4229 94.0937 80.7189 95.7976 78.623 96.866C76.2378 98.0831 73.1167 98.0837 66.875 98.0837L40.125 98.0837C33.8837 98.0837 30.7631 98.083 28.3779 96.866C26.2803 95.7984 24.5744 94.0944 23.5049 91.9978C22.2922 89.6126 22.292 86.4914 22.292 80.2498V26.7498C22.292 20.5084 22.2923 17.3878 23.5049 15.0027C24.5737 12.9044 26.2796 11.1984 28.3779 10.1296C30.7631 8.91707 33.8837 8.91675 40.125 8.91675H49.0957ZM46.5371 63.864C45.2572 63.864 44.0733 64.0805 42.9854 64.5125C41.9134 64.9444 40.9768 65.5517 40.1768 66.3357C39.3928 67.1037 38.7771 68.016 38.3291 69.072C37.8811 70.128 37.6572 71.2801 37.6572 72.5281C37.6572 73.808 37.8653 74.9844 38.2812 76.0564C38.7132 77.1122 39.3216 78.0323 40.1055 78.8162C40.8894 79.584 41.8094 80.184 42.8652 80.616C43.9372 81.0319 45.1052 81.24 46.3691 81.24C47.1851 81.24 47.993 81.1439 48.793 80.9519C49.609 80.7439 50.345 80.464 51.001 80.1121C51.673 79.7601 52.2094 79.3599 52.6094 78.9119L50.6406 75.7917C50.3366 76.1117 49.9849 76.4 49.585 76.656C49.2011 76.8959 48.7773 77.0882 48.3135 77.2322C47.8495 77.3762 47.3606 77.448 46.8486 77.448C46.0968 77.448 45.409 77.336 44.7852 77.1121C44.1772 76.8881 43.6566 76.5597 43.2246 76.1277C42.7928 75.6958 42.4567 75.1834 42.2168 74.5916C41.9769 73.9837 41.8574 73.3117 41.8574 72.5759C41.8574 71.824 41.9768 71.1439 42.2168 70.5359C42.4568 69.9279 42.7852 69.4157 43.2012 68.9998C43.6331 68.5679 44.1295 68.2403 44.6895 68.0164C45.2653 67.7765 45.8729 67.656 46.5127 67.656C47.0247 67.656 47.5051 67.7278 47.9531 67.8718C48.401 68.0158 48.8088 68.2239 49.1768 68.4958C49.5607 68.7518 49.9209 69.056 50.2568 69.408L52.7529 66.5515C52.2731 65.9917 51.6971 65.5119 51.0254 65.1121C50.3694 64.6961 49.6567 64.3835 48.8887 64.1755C48.1208 63.9676 47.3369 63.864 46.5371 63.864ZM53.3848 64.2L60.1055 80.9998H63.5127L70.2812 64.2H66.1055L62.9854 72.7683C62.7454 73.4081 62.5447 73.9597 62.3848 74.4236C62.2248 74.8715 62.0811 75.3119 61.9531 75.7439C61.9456 75.7683 61.9391 75.7933 61.9316 75.8181C61.8665 75.5735 61.7955 75.3324 61.7129 75.0964C61.6169 74.7765 61.4975 74.4321 61.3535 74.0642C61.2255 73.6963 61.065 73.2642 60.873 72.7683L57.6328 64.2L53.3848 64.2ZM53.3047 17.8796C52.6035 17.7627 51.8834 17.852 51.2324 18.1375C50.5813 18.423 50.0266 18.8919 49.6377 19.4871C49.2488 20.0822 49.0421 20.7781 49.042 21.489V40.1248C49.042 41.3072 49.5116 42.442 50.3477 43.2781C51.1837 44.114 52.3178 44.5837 53.5 44.5837L72.1494 44.5837C72.8718 44.5844 73.5787 44.3704 74.1797 43.9695C74.7805 43.5686 75.2486 42.9979 75.5254 42.3308C75.8021 41.6638 75.8749 40.9298 75.7344 40.2214C75.5937 39.5129 75.2461 38.8613 74.7354 38.3503L55.1807 18.7966C54.6576 18.3152 54.0059 17.9967 53.3047 17.8796Z" fill="black"/>
</svg>
