<svg width="90" height="90" viewBox="0 0 90 90" fill="none" xmlns="http://www.w3.org/2000/svg">
<path d="M73.414 57.1609C73.414 48.5599 66.1992 46.3236 60.8099 45.2914C56.7245 44.4313 52.639 44.9474 52.639 43.7433C52.639 41.593 69.937 43.4852 69.937 29.8095C69.937 22.2406 65.2431 18.6282 52.3782 18.6282C50.0313 18.6282 35.5149 18.9722 27.344 18.9722C22.0416 18.9722 19.6077 18.6282 18.2169 18.6282C17.3477 18.6282 17 19.0582 17 19.8323C17 20.6924 17.3477 21.2085 17.6085 21.3805C18.0431 21.6385 21.3462 22.2406 22.5632 24.3909C24.0409 27.0572 24.0409 34.3681 24.0409 39.1847V51.2262C24.0409 56.0428 24.0409 63.3537 22.5632 66.02C21.3462 68.1703 18.0431 68.7723 17.6085 69.0304C17.3477 69.2024 17 69.7184 17 70.5786C17 71.3526 17.3477 71.7827 18.2169 71.7827C21.2593 71.7827 24.4755 71.4387 26.9963 71.4387L53.5083 71.7827C61.3315 71.8687 73.414 69.7185 73.414 57.1609ZM55.5075 31.4437C55.5075 38.0666 51.2482 42.7111 43.512 42.7111C38.4703 42.7111 38.4703 40.6469 38.4703 37.3785V27.8313C38.4703 23.3587 39.7742 21.3805 45.8589 21.3805C52.1175 21.3805 55.5075 24.6489 55.5075 31.4437ZM56.8983 57.1609C56.8983 65.3319 52.8998 69.0304 46.5543 69.0304C39.6873 69.0304 38.4703 66.45 38.4703 60.6013V50.9681C38.4703 47.0117 39.0788 45.4635 44.4681 45.4635C49.8574 45.4635 56.8983 47.2697 56.8983 57.1609Z" fill="url(#paint0_linear_2486_1645)"/>
<path d="M85 5H5V7H85V5Z" fill="url(#paint1_linear_2486_1645)"/>
<path d="M85 83H5V85H85V83Z" fill="url(#paint2_linear_2486_1645)"/>
<defs>
<linearGradient id="paint0_linear_2486_1645" x1="45.207" y1="18.8497" x2="45.207" y2="72.0066" gradientUnits="userSpaceOnUse">
<stop stop-color="#3F3A6B"/>
<stop offset="1" stop-color="#7A76A3"/>
</linearGradient>
<linearGradient id="paint1_linear_2486_1645" x1="45" y1="5.00833" x2="45" y2="7.00833" gradientUnits="userSpaceOnUse">
<stop stop-color="#3F3A6B"/>
<stop offset="1" stop-color="#7A76A3"/>
</linearGradient>
<linearGradient id="paint2_linear_2486_1645" x1="45" y1="83.0083" x2="45" y2="85.0083" gradientUnits="userSpaceOnUse">
<stop stop-color="#3F3A6B"/>
<stop offset="1" stop-color="#7A76A3"/>
</linearGradient>
</defs>
</svg>
