<svg width="200" height="201" viewBox="0 0 200 201" fill="none" xmlns="http://www.w3.org/2000/svg">
<g clip-path="url(#clip0_2294_1278)">
<mask id="mask0_2294_1278" style="mask-type:luminance" maskUnits="userSpaceOnUse" x="0" y="0" width="200" height="201">
<path d="M200 0.5H0V200.5H200V0.5Z" fill="white"/>
</mask>
<g mask="url(#mask0_2294_1278)">
<path d="M93.6798 5.65488C97.3591 2.6541 102.641 2.6541 106.32 5.65488L114.253 12.1251C116.75 14.1609 120.074 14.8697 123.183 14.0292L133.039 11.3653C137.616 10.1282 142.432 12.2751 144.572 16.5059L149.229 25.7155C150.679 28.5815 153.416 30.5769 156.588 31.0794L166.717 32.6841C171.384 33.4235 174.897 37.3291 175.139 42.0484L175.672 52.4385C175.836 55.6331 177.519 58.5566 180.199 60.3034L188.865 65.9521C192.811 68.5248 194.427 73.5034 192.743 77.9036L189.015 87.6466C187.874 90.6272 188.225 93.9732 189.958 96.6527L195.618 105.399C198.175 109.352 197.629 114.553 194.306 117.889L186.976 125.248C184.722 127.511 183.684 130.714 184.184 133.869L185.815 144.168C186.552 148.827 183.933 153.368 179.531 155.064L169.921 158.764C166.93 159.916 164.672 162.431 163.849 165.529L161.188 175.547C159.973 180.123 155.716 183.219 150.989 182.966L140.78 182.42C137.567 182.248 134.468 183.632 132.452 186.139L126.014 194.147C123.04 197.846 117.876 198.945 113.653 196.777L104.567 192.112C101.7 190.641 98.3 190.641 95.4332 192.112L86.3465 196.777C82.1244 198.945 76.9602 197.846 73.9863 194.147L67.548 186.139C65.5322 183.632 62.4331 182.248 59.2204 182.42L49.0112 182.966C44.2841 183.219 40.0272 180.123 38.812 175.547L36.1508 165.529C35.328 162.431 33.0703 159.916 30.0793 158.764L20.4692 155.064C16.0667 153.368 13.4478 148.827 14.1856 144.168L15.8163 133.869C16.3158 130.714 15.2782 127.511 13.0241 125.248L5.69372 117.889C2.37118 114.553 1.82515 109.352 4.38254 105.399L10.0416 96.6527C11.7753 93.9732 12.1258 90.6272 10.9852 87.6466L7.25666 77.9036C5.57281 73.5034 7.18862 68.5248 11.1355 65.9521L19.8015 60.3034C22.4813 58.5566 24.1637 55.6331 24.3276 52.4385L24.8608 42.0484C25.103 37.3291 28.6156 33.4235 33.2829 32.6841L43.4119 31.0794C46.5839 30.5769 49.3215 28.5815 50.7709 25.7155L55.4284 16.5059C57.568 12.2751 62.3845 10.1282 66.9614 11.3653L76.817 14.0292C79.9265 14.8697 83.2505 14.1609 85.7466 12.1251L93.6798 5.65488Z" fill="black"/>
</g>
</g>
<defs>
<clipPath id="clip0_2294_1278">
<rect width="200" height="200" fill="white" transform="translate(0 0.5)"/>
</clipPath>
</defs>
</svg>
